<?xml version="1.0" encoding="utf-8"?>
<!-- Generator: Adobe Illustrator 26.5.0, SVG Export Plug-In . SVG Version: 6.00 Build 0)  -->
<svg version="1.1" id="Camada_1" xmlns="http://www.w3.org/2000/svg" xmlns:xlink="http://www.w3.org/1999/xlink" x="0px" y="0px"
	 viewBox="0 0 302 184" style="enable-background:new 0 0 302 184;" xml:space="preserve">
<style type="text/css">
	.st0{fill:none;}
	.st1{fill:#2F5579;}
	.st2{fill:#FEC563;}
	.st3{fill:#6DAFCC;}
	.st4{fill:#EE734B;}
	.st5{fill:#FFFFFF;}
	.st6{font-family:'Poppins-Bold';}
	.st7{font-size:18px;}
	.st8{font-size:15px;}
</style>
<g id="img-slide-13" transform="translate(-8290 4604)">
	<g id="Polígono_1" transform="translate(8359 -4570)">
		<path class="st0" d="M79.5-3L159,135H0L79.5-3z"/>
		<path class="st1" d="M79.5,5L6.9,131h145.2L79.5,5 M79.5-3L159,135H0L79.5-3z"/>
	</g>
	<g transform="matrix(1, 0, 0, 1, 8290, -4604)">
		<path id="Retângulo_7477-2" class="st2" d="M96,3h105c15.5,0,28,12.5,28,28l0,0c0,15.5-12.5,28-28,28H96c-15.5,0-28-12.5-28-28
			l0,0C68,15.5,80.5,3,96,3z"/>
	</g>
	<path id="Retângulo_7478" class="st3" d="M8312.5-4468h85c12.4,0,22.5,10.1,22.5,22.5l0,0c0,12.4-10.1,22.5-22.5,22.5h-85
		c-12.4,0-22.5-10.1-22.5-22.5l0,0C8290-4457.9,8300.1-4468,8312.5-4468z"/>
	<path id="Retângulo_7479" class="st4" d="M8484.5-4468h85c12.4,0,22.5,10.1,22.5,22.5l0,0c0,12.4-10.1,22.5-22.5,22.5h-85
		c-12.4,0-22.5-10.1-22.5-22.5l0,0C8462-4457.9,8472.1-4468,8484.5-4468z"/>
	<text transform="matrix(1 0 0 1 8387 -4567)" class="st5 st6 st7">ESTRUTURA</text>
	<text transform="matrix(1 0 0 1 8318 -4440)" class="st5 st6 st8">PROCESSO</text>
	<text transform="matrix(1 0 0 1 8487 -4440)" class="st5 st6 st8">RESULTADO</text>
</g>
</svg>
