<?xml version="1.0" encoding="UTF-8"?><svg id="Camada_1" xmlns="http://www.w3.org/2000/svg" viewBox="0 0 302 168"><defs><style>.cls-1{fill:none;}.cls-2{fill:#ee734b;}.cls-3{fill:#fec563;}.cls-4{fill:#2f5579;}.cls-5{fill:#6dafcc;}</style></defs><g id="Grupo_10057"><g id="Polígono_1"><path class="cls-1" d="M149.5,18l79.5,138H70L149.5,18Z"/><path class="cls-4" d="M149.5,26.01l-72.58,125.99H222.08L149.5,26.01m0-8.01l79.5,138H70L149.5,18Z"/></g><path id="Retângulo_7477" class="cls-3" d="M107.5,0h85c12.43,0,22.5,10.07,22.5,22.5h0c0,12.43-10.07,22.5-22.5,22.5H107.5c-12.43,0-22.5-10.07-22.5-22.5h0c0-12.43,10.07-22.5,22.5-22.5Z"/><path id="Retângulo_7478" class="cls-5" d="M22.5,123H107.5c12.43,0,22.5,10.07,22.5,22.5h0c0,12.43-10.07,22.5-22.5,22.5H22.5c-12.43,0-22.5-10.07-22.5-22.5H0c0-12.43,10.07-22.5,22.5-22.5Z"/><path id="Retângulo_7479" class="cls-2" d="M194.5,123h85c12.43,0,22.5,10.07,22.5,22.5h0c0,12.43-10.07,22.5-22.5,22.5h-85c-12.43,0-22.5-10.07-22.5-22.5h0c0-12.43,10.07-22.5,22.5-22.5Z"/></g></svg>